<svg xmlns="http://www.w3.org/2000/svg" width="726" height="726" fill="none"><path fill="#2655A6" d="M595.145 307.27c5.88 23.21-19.09 47.98-19.09 47.98s-45.53 30.15-36.72-99.1C548.145 126.9 343.975 0 343.975 0s1.17 12.32 0 97.52c-1.47 107.22-63.16 70.5-63.16 70.5-61.69 66.1-55.99 215.28-55.99 215.28-76.38 67.56-79.14-72.81-79.14-72.81S.275 457.37 155.965 614.53c0 0 22.83 22.77-13.64 15.54-26.01-5.15-31.89-15.54-31.89-15.54s5 65.09 188.5 105.72c3.56.72 60.59 11.9 124.99-.98 141.32-31.8 165.96-90.74 165.96-90.74s-2.99 5.32-26.44 7.71c-25.2 2.57-3.58-21.72-3.58-21.72 166-104.27 29.4-330.46 35.28-307.25Z"/><path fill="#326FD9" d="M534.825 521.69c33.05-51.77 7.71-90.33 7.71-90.33-51.81 26.64-67.31 8.04-71.91-7.04-1.82-5.97-2.13-12.31-1.08-18.46 33.52-196.45-96.61-302.55-93.34-276.32.99 7.93-.37 18.34-2.77 29.03-5.67 25.31-16.52 49.15-31.31 70.45-20.37 29.34-57.18 92.27-77.18 186.92-28.63 135.49-111.25 37.45-111.25 37.45s-48.28 165.16 148.91 267.54c11.61 2.01 48.35 7.28 92.64 2.67 129.49-60.95 175.93-179.88 175.93-179.88s-69.4 29.74-36.35-22.03Z"/><path fill="#4086FF" d="M489.635 486.51c.02-.05.03-.07.03-.07l-.03.07Zm0 0c-.67 1.72-14.54 35.4-66.06 43.99-52.87 8.81-29.74-175.25-29.74-175.25-129.98 61.58-105.75 206.09-105.75 206.09s-20.76 20.03-47.37 0c-9.04-6.8 10.81 116.12 95.8 163.39 15.77.98 35.46 1.17 56.99-.96 58.47-40.64 89.55-167.94 89.55-167.94l-26.82 16.56 33.4-85.88Z"/><path fill="#2655A6" d="M116.245 292.57s-7.62-66.62 29.51-96.05c5.8-4.6 9.71-8.33 12.57-15.16 2.33-5.55 5.94-14.37 4.18-20.97-4.4-16.53 49.57 74.9-46.26 132.18Z"/><path fill="#BFD7FF" d="M393.905 723.74c23.61-24.8 55.09-123.89 55.09-123.89s-6.82 20.3-32.31 17.63c-35.06-3.68-54.34-96.94-54.34-96.94s-29.13 79.31-35.25 91.06c-12.89 24.75-36.72 0-36.72 0-6.3 40.32 43.98 98.08 58.41 113.7 13.37.37 28.71.08 45.12-1.56Z"/></svg>